<?xml version="1.0" encoding="UTF-8"?>
<svg width="138px" height="20px" viewBox="0 0 138 20" version="1.1" xmlns="http://www.w3.org/2000/svg" xmlns:xlink="http://www.w3.org/1999/xlink">
    <title>logo_costsaver_darkMonochrome</title>
    <g id="Page-1" stroke="none" stroke-width="1" fill="none" fill-rule="evenodd">
        <g id="Desktop-HD-Copy" transform="translate(-1039.000000, -628.000000)" fill="#171E30">
            <path d="M1090.86044,628 L1090.86044,631.856643 L1095.38649,631.856643 L1095.38649,634.522392 L1090.86044,634.522392 L1090.86044,643.02914 C1090.86044,644.558765 1091.65082,645.334251 1093.20942,645.334251 C1093.7196,645.334251 1094.12788,645.260789 1094.56361,645.085387 L1094.78436,644.98906 L1095.88591,647.409328 L1095.70569,647.488533 C1094.89898,647.839622 1094.1205,648 1093.20942,648 C1090.28081,648 1088.35608,646.168833 1088.23865,643.309075 L1088.23295,643.02914 L1088.23295,634.522392 L1086.66023,634.522392 L1086.66023,631.856643 L1088.23295,631.856643 L1088.23295,628 L1090.86044,628 Z M1151.23555,631.502408 C1153.63935,631.502408 1155.66693,632.627579 1156.96863,634.477397 C1157.81991,635.687109 1158.35892,637.207466 1158.49041,638.926679 L1158.51471,639.335276 L1158.52194,639.786706 L1158.51671,639.887258 C1158.51007,640.133114 1158.49346,640.380718 1158.4682,640.62957 L1158.38632,641.311837 L1155.78431,641.316331 L1146.5409,641.317455 L1146.54423,641.332903 C1147.03888,643.292505 1148.44436,644.798283 1150.33136,645.213354 L1150.60989,645.266224 C1150.73087,645.285323 1150.85296,645.301894 1150.97754,645.312287 L1151.43986,645.334195 C1151.90357,645.334195 1152.33239,645.29403 1152.73685,645.21033 C1153.34616,645.08443 1153.89986,644.858461 1154.43102,644.517064 L1154.57535,644.421082 C1154.72678,644.321373 1154.87516,644.218012 1155.01801,644.108753 L1155.27669,643.887813 L1155.52186,643.662449 L1155.72987,643.455868 L1155.88452,643.294227 L1156.02332,643.140099 L1156.15638,642.985549 L1158.10339,644.794922 C1157.57269,645.436713 1156.92073,646.052382 1156.09935,646.600362 C1155.73226,646.845282 1155.32946,647.075597 1154.89177,647.28962 C1154.64566,647.401969 1154.38599,647.503644 1154.11219,647.593242 C1153.34341,647.844903 1152.46278,647.999944 1151.43986,647.999944 C1147.22011,647.999944 1143.89416,644.546958 1143.74842,640.083052 L1143.74344,639.725196 C1143.74344,635.114132 1147.03451,631.502408 1151.23555,631.502408 Z M1104.07915,631.502071 C1105.10567,631.502071 1106.2313,631.71104 1107.33395,632.105945 C1108.08474,632.375019 1108.78376,632.716559 1109.41136,633.121294 C1108.68244,633.669274 1108.04709,634.338029 1107.53355,635.098066 C1107.19802,634.917466 1106.83979,634.755965 1106.45914,634.619742 C1105.63416,634.324266 1104.81111,634.168101 1104.07915,634.168101 C1102.6418,634.168101 1101.55603,634.802028 1101.31296,635.783111 C1101.28602,635.891528 1101.26793,635.999694 1101.25887,636.10628 L1101.25206,636.321822 C1101.25206,636.743129 1101.35449,637.022596 1101.91426,637.380426 C1102.527,637.771898 1103.43788,638.062173 1104.35738,638.3343 L1104.80447,638.465713 C1105.29558,638.606148 1105.74019,638.742371 1106.15655,638.888424 C1106.52862,639.01931 1106.87883,639.157779 1107.2138,639.317595 L1107.50725,639.472355 C1109.46169,640.516086 1109.94176,641.982848 1109.98136,643.083357 L1109.98414,643.295013 C1109.98414,643.981462 1109.83548,644.637297 1109.54175,645.24426 C1109.40001,645.537208 1109.22311,645.811058 1109.01935,646.06637 C1108.6207,646.565759 1108.11104,646.989032 1107.50753,647.31091 C1106.66234,647.761709 1105.66184,647.999888 1104.61455,647.999888 C1102.43472,647.999888 1100.34209,647.244344 1098.39452,645.754884 C1099.03374,645.14427 1099.5769,644.431137 1099.99548,643.639923 C1101.47132,644.763689 1103.02522,645.334138 1104.61455,645.334138 C1105.23744,645.334138 1105.81521,645.201567 1106.28528,644.95103 C1106.70082,644.729423 1107.01116,644.424677 1107.18307,644.069656 L1107.239,643.934276 C1107.29651,643.78387 1107.33393,643.625879 1107.34905,643.461491 L1107.35665,643.295013 L1107.35665,643.237996 C1107.35665,642.872691 1107.25475,642.446597 1106.57387,642.003236 L1106.28445,641.831955 L1106.14288,641.754188 L1106.09592,641.730279 C1105.64075,641.513072 1105.11137,641.332339 1104.47751,641.14387 L1103.97367,640.996924 C1102.93663,640.693303 1101.87107,640.379289 1100.95473,639.891134 C1100.80386,639.810805 1100.65602,639.726825 1100.51401,639.636103 C1099.32195,638.874064 1098.70437,637.873806 1098.63182,636.583719 L1098.62457,636.264805 C1098.62457,635.888438 1098.67164,635.507577 1098.76465,635.132613 C1098.82722,634.879829 1098.91249,634.638842 1099.01409,634.407685 C1099.7992,632.620782 1101.70442,631.502071 1104.07915,631.502071 Z M1078.35672,631.502071 C1079.38325,631.502071 1080.50888,631.71104 1081.61125,632.105945 C1082.36232,632.375019 1083.06106,632.716559 1083.68893,633.121294 C1082.96001,633.669274 1082.32467,634.338029 1081.81113,635.098066 C1081.4756,634.917466 1081.11737,634.755965 1080.73671,634.619742 C1079.91173,634.324266 1079.08869,634.168101 1078.35672,634.168101 C1076.91937,634.168101 1075.83361,634.802028 1075.59054,635.783111 C1075.5636,635.891528 1075.54551,635.999694 1075.53644,636.10628 L1075.52964,636.264805 L1075.52964,636.321822 C1075.52964,636.743129 1075.63207,637.022596 1076.19184,637.380426 C1076.76373,637.7458 1077.59533,638.02302 1078.45126,638.279608 L1079.08204,638.465713 C1079.57316,638.606148 1080.01776,638.742371 1080.43413,638.888424 C1080.8062,639.01931 1081.1564,639.157779 1081.49138,639.317595 L1081.78483,639.472355 C1083.73927,640.516086 1084.21934,641.982848 1084.25894,643.083357 L1084.26171,643.295013 C1084.26171,643.981462 1084.11305,644.637297 1083.81932,645.24426 C1083.67758,645.537208 1083.50068,645.811058 1083.29693,646.06637 C1082.89828,646.565759 1082.38862,646.989032 1081.78511,647.31091 C1080.93991,647.761709 1079.93942,647.999888 1078.89213,647.999888 C1076.7123,647.999888 1074.61966,647.244344 1072.6721,645.754884 C1073.31132,645.14427 1073.85448,644.431137 1074.27306,643.639923 C1075.74889,644.763689 1077.30279,645.334138 1078.89213,645.334138 C1079.51502,645.334138 1080.09279,645.201567 1080.56258,644.95103 C1080.9784,644.729423 1081.28873,644.424677 1081.46065,644.069656 L1081.51657,643.934276 C1081.57409,643.78387 1081.61151,643.625879 1081.62663,643.461491 L1081.63423,643.295013 L1081.63423,643.237996 C1081.63423,642.872691 1081.53233,642.446597 1080.85123,642.003236 L1080.56203,641.831955 L1080.42046,641.754188 L1080.3735,641.730279 C1079.91833,641.513072 1079.38895,641.332339 1078.75508,641.14387 L1078.25125,640.996924 C1077.21421,640.693303 1076.14865,640.379289 1075.23231,639.891134 C1075.08143,639.810805 1074.9336,639.726825 1074.79158,639.636103 C1073.59953,638.874064 1072.98194,637.873806 1072.9094,636.583719 L1072.90215,636.264805 C1072.90215,635.888438 1072.94921,635.507577 1073.04223,635.132613 C1073.1048,634.879829 1073.19006,634.638842 1073.29166,634.407685 C1074.07678,632.620782 1075.98199,631.502071 1078.35672,631.502071 Z M1062.43902,631.502437 C1066.92216,631.502437 1070.56953,635.202915 1070.56953,639.751064 C1070.56953,644.299493 1066.92216,647.999972 1062.43902,647.999972 C1057.95588,647.999972 1054.30852,644.299493 1054.30852,639.751064 C1054.30852,635.202915 1057.95588,631.502437 1062.43902,631.502437 Z M1046.94641,631.513053 C1049.67854,631.513053 1051.44505,632.760122 1052.59089,633.85243 C1051.95748,634.479897 1051.4254,635.211005 1051.01955,636.01879 C1050.11262,635.098937 1048.91668,634.178803 1046.94641,634.178803 C1044.09983,634.178803 1041.76832,636.535792 1041.63363,639.48651 L1041.62749,639.808305 C1041.62749,642.855197 1044.01357,645.333886 1046.94641,645.333886 C1048.55651,645.333886 1049.77045,644.770739 1051.00377,643.45261 C1051.40796,644.265171 1051.93949,645.001053 1052.57345,645.632733 C1050.9329,647.244934 1049.13316,647.999916 1046.94641,647.999916 C1042.66196,647.999916 1039.15883,644.48678 1039.00525,640.108158 L1039,639.756344 C1039,635.211005 1042.56459,631.513053 1046.94641,631.513053 Z M1119.78595,631.504403 C1123.75025,631.504403 1125.26144,634.293797 1125.34456,636.274847 L1125.34822,636.447456 L1125.34822,647.633435 L1122.81458,647.633435 L1122.81458,646.813572 C1121.70251,647.410704 1120.12508,647.994074 1118.19025,647.994074 C1115.93677,647.994074 1114.60351,647.043043 1113.88207,646.245369 C1113.04795,645.323269 1112.56929,644.10204 1112.56929,642.894575 L1112.57326,642.725836 L1112.57967,642.615808 C1112.63223,641.875474 1112.92865,640.330158 1114.41,639.194377 C1116.13482,637.87235 1118.80824,637.585208 1122.36534,638.328977 L1122.81458,638.427318 L1122.81325,636.40035 L1122.80302,636.277406 C1122.74034,635.730283 1122.33947,634.075217 1119.78595,634.075217 C1117.64139,634.075217 1116.00938,635.176803 1115.45151,635.609517 L1115.24329,635.780948 L1114.92658,636.073055 L1113.22153,634.171275 L1113.68276,633.752304 L1113.75809,633.68969 C1114.45913,633.115454 1116.70125,631.504403 1119.78595,631.504403 Z M1129.93512,631.89032 L1135.02122,643.854031 L1140.11064,631.89032 L1142.87987,631.89032 L1136.22242,647.678655 L1133.80561,647.674161 L1127.16949,631.89032 L1129.93512,631.89032 Z M1174.71856,643.046751 C1175.97874,643.046751 1177,644.083166 1177,645.361692 C1177,646.640218 1175.97874,647.676633 1174.71856,647.676633 C1173.45839,647.676633 1172.43685,646.640218 1172.43685,645.361692 C1172.43685,644.083166 1173.45839,643.046751 1174.71856,643.046751 Z M1170.13421,631.60942 L1170.13421,634.846462 C1167.53026,634.846462 1165.38142,636.088755 1165.01738,639.441796 C1164.99357,639.660876 1164.97469,639.885698 1164.96474,640.120922 L1164.95703,640.482144 L1164.95703,647.676661 L1162.03859,647.676661 L1162.03859,631.890292 L1164.95703,631.890292 L1164.95703,635.214684 C1165.72881,633.191063 1167.61376,631.730183 1169.85257,631.616551 L1170.13421,631.60942 Z M1115.93733,641.245299 C1115.16328,641.839061 1115.10293,642.6578 1115.10293,642.894575 L1115.10565,642.994839 C1115.1532,643.889441 1115.83869,645.422978 1118.19025,645.422978 C1120.47197,645.422978 1122.13819,644.283146 1122.68823,643.850818 L1122.81458,643.748143 L1122.81458,641.069474 C1118.49339,639.974356 1116.65462,640.695353 1115.93733,641.245299 Z M1062.43902,634.168186 C1059.40486,634.168186 1056.93628,636.672715 1056.93628,639.751064 C1056.93628,642.829694 1059.40486,645.334223 1062.43902,645.334223 C1065.47346,645.334223 1067.94204,642.829694 1067.94204,639.751064 C1067.94204,636.672715 1065.47346,634.168186 1062.43902,634.168186 Z M1151.39224,634.168158 L1151.32553,634.171528 L1151.23555,634.168158 C1150.28677,634.168158 1149.42005,634.450947 1148.68768,634.9465 L1148.44307,635.123682 L1148.29697,635.241823 L1148.01784,635.491342 L1147.93009,635.582625 C1147.8271,635.688795 1147.72882,635.800581 1147.63498,635.916862 C1147.03326,636.649178 1146.62687,637.568503 1146.4509,638.592117 L1146.40082,638.937071 L1155.8539,638.933841 L1155.81337,638.631483 C1155.74361,638.154283 1155.63011,637.687755 1155.46843,637.246788 C1155.13373,636.333956 1154.59528,635.534596 1153.84061,634.978471 C1153.27891,634.549862 1152.60563,634.267586 1151.82494,634.190908 C1151.68403,634.177146 1151.54035,634.168158 1151.39224,634.168158 Z" id="logo_costsaver_darkMonochrome"></path>
        </g>
    </g>
</svg>