<?xml version="1.0" encoding="UTF-8"?>
<svg width="132px" height="36px" viewBox="0 0 132 36" version="1.1" xmlns="http://www.w3.org/2000/svg" xmlns:xlink="http://www.w3.org/1999/xlink">
    <title>logo_trafalgar_darkMonochrome</title>
    <g id="Page-1" stroke="none" stroke-width="1" fill="none" fill-rule="evenodd">
        <g id="Desktop-HD-Copy" transform="translate(-264.000000, -620.000000)" fill="#171E30">
            <path d="M396,620 L396,656 L264,656 L264,620 L396,620 Z M353.056886,632 C349.707287,632 346.98102,634.704464 346.98102,638.027877 C346.98102,641.264483 349.700098,644 352.91741,644 C356.161323,644 358.51733,641.633594 358.51733,638.372287 L358.51733,638.372287 L358.51733,637.563489 C358.51733,637.461154 358.432493,637.377169 358.326807,637.377169 L358.326807,637.377169 L353.329369,637.377169 C353.223683,637.377169 353.138847,637.461154 353.138847,637.563489 L353.138847,637.563489 L353.138847,639.538905 C353.138847,639.641946 353.223683,639.725931 353.329369,639.725931 L353.329369,639.725931 L355.763742,639.725931 C355.372632,640.872081 354.044008,641.650532 353.000808,641.650532 C351.127937,641.650532 349.482974,639.93907 349.482974,637.986943 C349.482974,635.946598 351.078329,634.349468 353.113684,634.349468 C354.18708,634.349468 355.303613,634.920426 355.960735,635.805446 L355.960735,635.805446 L356.231061,636.171029 C356.262695,636.214786 356.313022,636.240193 356.366943,636.245839 C356.421584,636.249368 356.476224,636.23243 356.515047,636.195024 L356.515047,636.195024 L358.037789,634.765865 C358.110403,634.699524 358.117592,634.591543 358.055762,634.515321 C358.055762,634.515321 356.363348,632 353.056886,632 Z M293.575007,632.230571 L289.389985,632.230571 L289.329863,632.239881 C289.254218,632.264024 289.199463,632.332341 289.199463,632.411951 L289.199463,632.411951 L289.199463,643.582685 L289.209436,643.641088 C289.235295,643.714803 289.308456,643.769005 289.39358,643.769005 L289.39358,643.769005 L291.581352,643.769005 L291.641399,643.759684 C291.71686,643.735496 291.771155,643.666953 291.771155,643.586214 L291.771155,643.586214 L291.771155,639.266271 L292.538278,639.266271 L295.244414,643.679374 L295.275195,643.716603 C295.310513,643.749553 295.358368,643.769005 295.409055,643.769005 L295.409055,643.769005 L298.005192,643.769005 L298.059619,643.761595 C298.111956,643.747039 298.156711,643.711839 298.182054,643.663142 C298.217283,643.598918 298.212969,643.521284 298.170551,643.460589 L298.170551,643.460589 L295.010036,638.928918 L295.177633,638.849863 C295.848774,638.51134 297.087988,637.622384 297.089965,635.679609 C297.091403,634.762124 296.726175,633.897571 296.06402,633.245451 C295.398989,632.590508 294.513959,632.230571 293.575007,632.230571 L293.575007,632.230571 Z M379.370113,632.230571 L375.184372,632.230571 L375.12425,632.239881 C375.048605,632.264024 374.99385,632.332341 374.99385,632.411951 L374.99385,632.411951 L374.99385,643.582685 L375.003829,643.641088 C375.029711,643.714803 375.102986,643.769005 375.188686,643.769005 L375.188686,643.769005 L377.376458,643.769005 L377.43643,643.759684 C377.511707,643.735496 377.565542,643.666953 377.565542,643.586214 L377.565542,643.586214 L377.565542,639.266271 L378.332664,639.266271 L381.03952,643.679374 L381.069761,643.716603 C381.10454,643.749553 381.151857,643.769005 381.202003,643.769005 L381.202003,643.769005 L383.798859,643.769005 L383.853107,643.761595 C383.905579,643.747039 383.951277,643.711839 383.97716,643.663142 C384.01095,643.598918 384.007356,643.521284 383.965656,643.460589 L383.965656,643.460589 L380.803704,638.928918 L380.971137,638.849863 C381.641733,638.51134 382.881057,637.622384 382.884352,635.679609 C382.88579,634.762124 382.520562,633.897571 381.856969,633.245451 C381.192657,632.590508 380.309065,632.230571 379.370113,632.230571 L379.370113,632.230571 Z M284.992657,632.230783 L276.190522,632.230783 C276.085555,632.230783 276,632.314062 276,632.417103 L276,632.417103 L276,634.388284 C276,634.492031 276.085555,634.57531 276.190522,634.57531 L276.190522,634.57531 L279.34241,634.57531 L279.34241,643.582897 C279.34241,643.685232 279.427965,643.769217 279.532932,643.769217 L279.532932,643.769217 L281.650966,643.769217 C281.754495,643.769217 281.84005,643.685232 281.84005,643.582897 L281.84005,643.582897 L281.84005,634.57531 L284.992657,634.57531 C285.096905,634.57531 285.18246,634.492031 285.18246,634.388284 L285.18246,634.388284 L285.18246,632.417103 C285.18246,632.314062 285.096905,632.230783 284.992657,632.230783 L284.992657,632.230783 Z M320.457284,632.230853 L314.108216,632.230853 C314.004686,632.230853 313.91985,632.313427 313.91985,632.417173 L313.91985,632.417173 L313.91985,643.582968 C313.91985,643.686008 314.004686,643.769288 314.108216,643.769288 L314.108216,643.769288 L316.226968,643.769288 C316.331935,643.769288 316.417491,643.686008 316.417491,643.582968 L316.417491,643.582968 L316.417491,638.676539 L320.331467,638.676539 C320.435716,638.676539 320.520552,638.59326 320.520552,638.490219 L320.520552,638.490219 L320.520552,636.517626 C320.520552,636.415997 320.435716,636.332012 320.331467,636.332012 L320.331467,636.332012 L316.417491,636.332012 L316.417491,634.574675 L320.457284,634.574675 C320.56297,634.574675 320.647807,634.492101 320.647807,634.389061 L320.647807,634.389061 L320.647807,632.417173 C320.647807,632.313427 320.56297,632.230853 320.457284,632.230853 L320.457284,632.230853 Z M339.666686,632.230995 L337.549371,632.230995 C337.444404,632.230995 337.359567,632.313568 337.359567,632.416609 L337.359567,632.416609 L337.359567,643.582403 C337.359567,643.685444 337.444404,643.769429 337.549371,643.769429 L337.549371,643.769429 L344.178112,643.769429 C344.283079,643.769429 344.368634,643.685444 344.368634,643.582403 L344.368634,643.582403 L344.368634,641.610516 C344.368634,641.508181 344.283079,641.424196 344.178112,641.424196 L344.178112,641.424196 L339.856489,641.424196 L339.856489,632.416609 C339.856489,632.313568 339.771653,632.230995 339.666686,632.230995 L339.666686,632.230995 Z M305.706754,632.230289 L304.957605,632.230289 L304.902763,632.238592 C304.850661,632.25477 304.808063,632.293278 304.786494,632.342504 L304.786494,632.342504 L299.899775,643.505476 L299.882946,643.565047 C299.878686,643.605772 299.888272,643.647333 299.911278,643.682621 C299.947226,643.736964 300.006899,643.769429 300.071605,643.769429 L300.071605,643.769429 L302.246436,643.769429 L302.300278,643.761666 C302.351942,643.746448 302.395618,643.709792 302.418265,643.660036 L302.418265,643.660036 L303.484472,641.357854 L307.181325,641.357854 L308.247531,643.660036 L308.276705,643.705117 C308.311922,643.745213 308.363822,643.769429 308.419361,643.769429 L308.419361,643.769429 L310.594192,643.769429 L310.656341,643.758999 C310.695964,643.745355 310.730793,643.71885 310.753799,643.682621 C310.788309,643.629689 310.793342,643.562642 310.76674,643.505476 L310.76674,643.505476 L305.880021,632.342504 L305.851229,632.297281 C305.816618,632.25649 305.765528,632.230289 305.706754,632.230289 L305.706754,632.230289 Z M328.822799,632.230289 L328.07365,632.230289 L328.018302,632.238592 C327.966167,632.25477 327.924647,632.293278 327.902539,632.342504 L327.902539,632.342504 L323.015101,643.505476 L322.998299,643.565047 C322.994411,643.605772 323.004796,643.647333 323.027323,643.682621 C323.062552,643.736964 323.122944,643.769429 323.186931,643.769429 L323.186931,643.769429 L325.361043,643.769429 L325.415211,643.761666 C325.467043,643.746448 325.510585,643.709792 325.53431,643.660036 L325.53431,643.660036 L326.599798,641.357854 L330.295932,641.357854 L331.363576,643.660036 L331.392649,643.705117 C331.427698,643.745213 331.479328,643.769429 331.535406,643.769429 L331.535406,643.769429 L333.709518,643.769429 L333.771827,643.758999 C333.81129,643.745355 333.84564,643.71885 333.869125,643.682621 C333.902916,643.629689 333.907949,643.562642 333.882067,643.505476 L333.882067,643.505476 L328.994628,632.342504 L328.966162,632.297281 C328.93172,632.25649 328.880494,632.230289 328.822799,632.230289 L328.822799,632.230289 Z M366.640414,632.230289 L365.891265,632.230289 L365.836535,632.238592 C365.784635,632.25477 365.742442,632.293278 365.720873,632.342504 L365.720873,632.342504 L360.833435,643.505476 L360.816952,643.565047 C360.812745,643.605772 360.822171,643.647333 360.845657,643.682621 C360.880886,643.736964 360.941278,643.769429 361.005265,643.769429 L361.005265,643.769429 L363.179377,643.769429 L363.233354,643.761666 C363.285287,643.746448 363.329638,643.709792 363.353363,643.660036 L363.353363,643.660036 L364.418851,641.357854 L368.114266,641.357854 L369.18191,643.660036 L369.211084,643.705117 C369.246301,643.745213 369.298201,643.769429 369.35374,643.769429 L369.35374,643.769429 L371.528571,643.769429 L371.590188,643.758999 C371.629544,643.745355 371.664213,643.71885 371.68674,643.682621 C371.721969,643.629689 371.727002,643.562642 371.701119,643.505476 L371.701119,643.505476 L366.8144,632.342504 L366.785091,632.297281 C366.750009,632.25649 366.698649,632.230289 366.640414,632.230289 L366.640414,632.230289 Z M305.33865,636.285573 L306.559431,639.274457 L304.099895,639.274457 L305.33865,636.285573 Z M328.453257,636.285573 L329.674038,639.274457 L327.215221,639.274457 L328.453257,636.285573 Z M366.273029,636.285573 L367.492372,639.274457 L365.033555,639.274457 L366.273029,636.285573 Z M293.296053,634.51158 L293.444185,634.519618 C294.116567,634.593768 294.521148,635.168688 294.521148,635.732541 L294.521148,635.732541 L294.515006,635.853227 C294.457906,636.415558 294.005995,636.953502 293.296053,636.953502 L293.296053,636.953502 L291.840894,636.953502 L291.805878,636.943883 C291.785215,636.931702 291.771155,636.909275 291.771155,636.884338 L291.771155,636.884338 L291.771155,634.579333 L291.780768,634.544516 C291.792964,634.524441 291.815491,634.51158 291.840894,634.51158 L291.840894,634.51158 L293.296053,634.51158 Z M379.091159,634.51158 L379.238914,634.519618 C379.909794,634.593768 380.316254,635.168688 380.316254,635.732541 L380.316254,635.732541 L380.310085,635.853227 C380.252743,636.415558 379.799088,636.953502 379.091159,636.953502 L379.091159,636.953502 L377.635281,636.953502 L377.600265,636.943883 C377.579602,636.931702 377.565542,636.909275 377.565542,636.884338 L377.565542,636.884338 L377.565542,634.579333 L377.575155,634.544516 C377.58735,634.524441 377.609878,634.51158 377.635281,634.51158 L377.635281,634.51158 L379.091159,634.51158 Z" id="logo_trafalgar_darkMonochrome"></path>
        </g>
    </g>
</svg>