<?xml version="1.0" encoding="UTF-8"?>
<svg width="123px" height="36px" viewBox="0 0 123 36" version="1.1" xmlns="http://www.w3.org/2000/svg" xmlns:xlink="http://www.w3.org/1999/xlink">
    <title>logo_classicFolios_darkMonochrome</title>
    <g id="Page-1" stroke="none" stroke-width="1" fill="none" fill-rule="evenodd">
        <g id="Desktop-HD-Copy" transform="translate(-876.000000, -620.000000)" fill="#0A293B" fill-rule="nonzero">
            <path d="M902.507351,628.473656 C902.252449,628.242246 901.977039,628.034336 901.684501,627.852476 C900.754533,627.257532 899.674043,626.938486 898.569084,626.932499 C896.935673,626.925014 895.377292,627.615512 894.288358,628.829294 C893.124283,630.046567 892.487055,631.67139 892.514234,633.353003 C892.486542,635.034709 893.123843,636.659719 894.288358,637.876712 C896.158486,639.959317 899.268969,640.379346 901.627424,638.867756 C901.940284,638.670229 902.233357,638.443156 902.502595,638.189673 L902.502595,639.498419 L904.576369,639.498419 L904.576369,627.198103 L902.507351,627.198103 L902.507351,628.473656 Z M937.495152,652.822972 C938.375152,652.822972 939.088533,653.534174 939.088533,654.411486 C939.088533,655.288798 938.375152,656 937.495152,656 C936.615152,656 935.901771,655.288798 935.901771,654.411486 C935.901771,653.534174 936.615152,652.822972 937.495152,652.822972 Z M924.239171,652.822972 C925.119171,652.822972 925.832552,653.534174 925.832552,654.411486 C925.832552,655.288798 925.119171,656 924.239171,656 C923.35917,656 922.645789,655.288798 922.645789,654.411486 C922.645789,653.534174 923.35917,652.822972 924.239171,652.822972 Z M910.859524,652.822972 C911.739524,652.822972 912.452905,653.534174 912.452905,654.411486 C912.452905,655.288798 911.739524,656 910.859524,656 C909.979523,656 909.266142,655.288798 909.266142,654.411486 C909.266142,653.534174 909.979523,652.822972 910.859524,652.822972 Z M950.751134,652.822972 C951.631134,652.822972 952.344515,653.534174 952.344515,654.411486 C952.344515,655.288798 951.631134,656 950.751134,656 C949.871133,656 949.157752,655.288798 949.157752,654.411486 C949.157752,653.534174 949.871133,652.822972 950.751134,652.822972 Z M964.007115,652.822972 C964.887115,652.822972 965.600497,653.534174 965.600497,654.411486 C965.600497,655.288798 964.887115,656 964.007115,656 C963.127115,656 962.413734,655.288798 962.413734,654.411486 C962.413734,653.534174 963.127115,652.822972 964.007115,652.822972 Z M992.264663,628.027924 C993.601201,626.548472 995.836691,626.766596 997.239818,627.828767 L997.239818,627.828767 L997.239818,630.673867 C997.092371,630.522129 996.930655,630.365648 996.764182,630.199684 C996.514782,629.943352 996.251184,629.70114 995.974626,629.474183 C995.34203,628.990516 994.324168,628.848261 993.82475,629.403056 C993.580331,629.677575 993.507218,630.063888 993.634496,630.408325 C993.769578,630.687569 993.974291,630.927576 994.229041,631.105374 C994.746005,631.466429 995.297205,631.776127 995.874742,632.030032 L995.874742,632.030032 L995.960357,632.072708 C997.011513,632.589568 998.338538,633.234457 998.814174,634.785037 C999.174703,635.914769 999.005215,637.146331 998.352807,638.137513 C997.724632,639.071806 996.704147,639.67036 995.579848,639.763962 C995.421792,639.779692 995.263052,639.787671 995.104212,639.787671 C993.736405,639.714795 992.411508,639.2865 991.261071,638.545311 L991.261071,638.545311 L991.261071,636.093783 L991.313391,636.126976 C992.588096,636.91412 994.03403,637.815068 995.380081,637.677555 C995.879787,637.645617 996.336467,637.384704 996.616735,636.971022 C996.90984,636.505762 996.986185,635.936655 996.826015,635.410959 C996.63576,634.780295 996.06024,634.462592 995.051892,633.988409 L995.051892,633.988409 L994.985302,633.955216 C994.272279,633.640965 993.593346,633.254869 992.959092,632.80295 C992.402571,632.401644 991.965382,631.857646 991.6939,631.228662 C991.258422,630.140323 991.47961,628.899942 992.264663,628.027924 Z M958.732309,626.932561 C960.44323,626.914599 962.086724,627.596726 963.279392,628.81981 C964.505499,629.992472 965.193553,631.616464 965.181937,633.310327 C965.195781,635.000789 964.53335,636.627064 963.341224,637.829294 C962.186046,639.08171 960.553036,639.788047 958.846462,639.773446 L958.846462,639.773446 L958.62767,639.773446 C956.916868,639.788506 955.279278,639.082429 954.118638,637.829294 C952.913803,636.633228 952.240459,635.005398 952.249388,633.310327 C952.236436,631.618966 952.924915,629.997404 954.151933,628.829294 C955.354192,627.599025 957.009546,626.913543 958.732309,626.932561 Z M935.34052,626.932561 C936.317031,626.927679 937.281203,627.150125 938.156286,627.582192 L938.156286,627.582192 L938.294221,627.648577 L938.294221,630.289779 L937.88993,629.976818 C937.70625,629.831886 937.512321,629.700354 937.309654,629.583246 C936.682741,629.219372 935.970809,629.026396 935.245393,629.023709 C934.108221,629.01428 933.01868,629.478327 932.239372,630.304004 C931.418669,631.106579 930.956263,632.204521 930.956263,633.350632 C930.956263,634.496743 931.418669,635.594686 932.239372,636.39726 C933.01834,637.223422 934.108105,637.687564 935.245393,637.677555 C935.970749,637.674424 936.682567,637.481479 937.309654,637.118019 C937.512497,636.999429 937.706433,636.866307 937.88993,636.719705 L937.88993,636.719705 L938.294221,636.402002 L938.294221,639.071654 L938.156286,639.13804 C937.28722,639.561114 936.33141,639.777016 935.364302,639.768704 L935.364302,639.768704 L935.145509,639.768704 C933.439019,639.783729 931.804669,639.083466 930.641234,637.838778 C929.433674,636.64453 928.759836,635.015507 928.771984,633.31981 C928.760368,631.625947 929.448421,630.001956 930.674529,628.829294 C931.903765,627.586814 933.590301,626.901234 935.34052,626.932561 Z M916.448249,628.023182 C917.784787,626.54373 920.020277,626.761855 921.423404,627.824025 L921.423404,627.824025 L921.423404,630.669125 C921.275957,630.517387 921.114241,630.360906 920.947768,630.194942 C920.698424,629.938553 920.434822,629.696338 920.158212,629.469442 C919.525616,628.985774 918.507754,628.843519 918.008336,629.398314 C917.763917,629.672833 917.690804,630.059146 917.818082,630.403583 C917.953164,630.682828 918.157877,630.922834 918.412627,631.100632 C918.929591,631.461687 919.480791,631.771385 920.058328,632.02529 L920.058328,632.02529 L920.158212,632.067966 C921.23315,632.584826 922.569687,633.229715 923.031055,634.794521 C923.376829,635.916309 923.202425,637.133408 922.555418,638.113804 C921.927243,639.048097 920.906758,639.646651 919.782459,639.740253 C919.624403,639.755975 919.465664,639.763962 919.306823,639.763962 C917.939016,639.691086 916.61412,639.262791 915.463682,638.521602 L915.463682,638.521602 L915.463682,636.070074 L915.516002,636.103267 C916.790707,636.890411 918.236641,637.791359 919.582692,637.653846 C920.071967,637.619983 920.519596,637.367218 920.800321,636.96628 C921.093426,636.50102 921.169771,635.931913 921.009601,635.406217 C920.819346,634.775553 920.243826,634.45785 919.235477,633.983667 L919.235477,633.983667 L919.168888,633.950474 C918.455925,633.636105 917.777004,633.250016 917.142678,632.798209 C916.586157,632.396902 916.148968,631.852904 915.877486,631.22392 C915.442008,630.135582 915.663196,628.8952 916.448249,628.023182 Z M951.897417,623.063224 L951.897417,625.149631 L951.193475,625.149631 C950.480474,625.129698 949.791268,625.406256 949.29093,625.913066 C948.796705,626.404967 948.523806,627.07572 948.534669,627.771865 L948.534669,627.771865 L951.925955,627.771865 L951.925955,629.858272 L948.529912,629.858272 L948.529912,639.763962 L946.346742,639.763962 L946.346059,627.613962 C946.374973,626.401099 946.886487,625.245254 947.773651,624.405163 C948.690116,623.52363 949.92018,623.040953 951.193475,623.063224 L951.193475,623.063224 L951.897417,623.063224 Z M968.82531,620 L968.82531,633.002107 C968.82531,633.931507 968.82531,634.822972 968.87763,635.676502 C968.996539,637.288725 969.624379,637.48314 969.828903,637.544784 C970.218924,637.682297 970.613702,637.544784 971.260568,637.331401 L971.260568,637.331401 L971.260568,639.588514 C970.894346,639.696237 970.515099,639.753668 970.13331,639.759237 C969.810809,639.760281 969.490032,639.712311 969.182037,639.616965 C968.154663,639.304004 966.889471,638.38883 966.727754,635.823498 C966.670678,634.903583 966.670678,633.978925 966.670678,633.082719 L966.670678,633.082719 L966.670678,620 L968.82531,620 Z M927.259461,627.487355 L927.259461,639.75922 L925.071534,639.75922 L925.071534,627.487355 L927.259461,627.487355 Z M907.472994,628.027924 C908.809531,626.548472 911.045022,626.766596 912.448149,627.828767 L912.448149,627.828767 L912.448149,630.673867 C912.300701,630.522129 912.138985,630.365648 911.972512,630.199684 C911.721368,629.946404 911.456181,629.707357 911.1782,629.483667 C910.545604,629.009484 909.532499,628.848261 909.03308,629.398314 C908.788661,629.672833 908.715548,630.059146 908.842826,630.403583 C908.977909,630.682828 909.182621,630.922834 909.437371,631.100632 C909.954352,631.461661 910.505549,631.771358 911.083073,632.02529 L911.083073,632.02529 L911.168687,632.067966 C912.243625,632.584826 913.580163,633.229715 914.036774,634.789779 C914.382548,635.911567 914.208144,637.128666 913.561137,638.109062 C912.932962,639.043355 911.912477,639.641909 910.788178,639.735511 C910.630122,639.751225 910.471382,639.75922 910.312542,639.75922 C908.944735,639.686344 907.619839,639.258049 906.469401,638.51686 L906.469401,638.51686 L906.469401,636.065332 L906.521721,636.098525 C907.796426,636.885669 909.24236,637.786617 910.588411,637.649104 C911.088118,637.617166 911.544797,637.356253 911.825065,636.942571 C912.118171,636.477311 912.194516,635.908204 912.034345,635.382508 C911.844091,634.751844 911.268571,634.434141 910.260222,633.959958 L910.260222,633.959958 L910.193633,633.926765 C909.480639,633.612455 908.801712,633.226363 908.167423,632.774499 C907.614894,632.380995 907.178054,631.847255 906.90223,631.228662 C906.465589,630.140442 906.68689,628.899431 907.472994,628.027924 Z M889.679443,620 L889.679899,633.555195 C889.681726,634.286575 889.690858,634.993678 889.736519,635.676502 C889.855428,637.288725 890.483268,637.48314 890.687791,637.544784 C891.082569,637.682297 891.472591,637.544784 892.133725,637.331401 L892.133725,637.331401 L892.133725,639.588514 C891.765972,639.696664 891.385096,639.7541 891.001711,639.759235 C890.679216,639.760207 890.35845,639.712239 890.050439,639.616965 C889.027821,639.304004 887.762629,638.38883 887.600912,635.823498 C887.543836,634.903583 887.543836,633.978925 887.543836,633.082719 L887.543836,633.082719 L887.543836,620 L889.679443,620 Z M975.227374,627.487355 L975.227374,639.75922 L973.039447,639.75922 L973.039447,627.487355 L975.227374,627.487355 Z M882.568681,626.932561 C883.545592,626.928977 884.509824,627.15306 885.384447,627.586934 L885.384447,627.586934 L885.531895,627.648577 L885.531895,630.280295 L885.127604,629.962592 C884.944003,629.817553 884.750066,629.686016 884.547328,629.56902 C883.920415,629.205146 883.208483,629.012171 882.483066,629.009484 C881.345265,629.004478 880.25715,629.473809 879.481802,630.304004 C878.661099,631.106579 878.198693,632.204521 878.198693,633.350632 C878.198693,634.496743 878.661099,635.594686 879.481802,636.39726 C880.259644,637.222206 881.347429,637.686239 882.483066,637.677555 C883.204038,637.670723 883.910707,637.476206 884.533059,637.113277 C884.735942,636.996512 884.929895,636.864963 885.113335,636.719705 L885.113335,636.719705 L885.522382,636.402002 L885.522382,639.057429 L885.379691,639.128556 C884.512123,639.551078 883.557986,639.76697 882.592463,639.75922 L882.592463,639.75922 L882.37367,639.75922 C880.66718,639.774245 879.03283,639.073982 877.869395,637.829294 C876.6642,636.637353 875.990559,635.012225 876.000145,633.31981 C875.988529,631.625947 876.676582,630.001956 877.90269,628.829294 C879.131926,627.586814 880.818462,626.901234 882.568681,626.932561 Z M983.603328,626.932561 C985.322126,626.899797 986.978679,627.57377 988.183704,628.796101 C989.409812,629.968763 990.097866,631.592755 990.086249,633.286617 C990.09883,634.97776 989.434649,636.60413 988.240781,637.805585 C987.080568,639.058196 985.441811,639.76133 983.731749,639.740253 L983.731749,639.740253 L983.512957,639.740253 C981.802155,639.755313 980.164565,639.049236 979.003925,637.796101 C977.79909,636.600035 977.125746,634.972205 977.134587,633.277134 C977.127167,631.599402 977.809615,629.991894 979.022951,628.829294 C980.22489,627.598555 981.880456,626.912986 983.603328,626.932561 Z M958.746579,629.009484 C957.600792,629.004785 956.506054,629.481624 955.731045,630.322972 C954.892124,631.121225 954.422083,632.230084 954.432558,633.386196 C954.419765,634.528837 954.88513,635.625117 955.716776,636.411486 C956.506683,637.241809 957.608302,637.70586 958.756091,637.691781 C959.891235,637.709789 960.980586,637.246075 961.7526,636.416228 L961.7526,636.416228 L961.743087,636.392518 C963.422057,634.706291 963.422057,631.985489 961.743087,630.299262 C960.972903,629.465162 959.883681,628.996331 958.746579,629.009484 Z M983.617597,629.009484 C982.467039,629.004539 981.368098,629.485149 980.59255,630.332455 C979.759551,631.130072 979.293255,632.234787 979.303576,633.386196 C979.290783,634.528837 979.756148,635.625117 980.587794,636.411486 C981.377363,637.242295 982.479206,637.70644 983.627109,637.691781 C984.762372,637.710392 985.851959,637.246577 986.623618,636.416228 L986.623618,636.416228 L986.614105,636.392518 C988.293075,634.706291 988.293075,631.985489 986.614105,630.299262 C985.843921,629.465162 984.754699,628.996331 983.617597,629.009484 Z M898.592865,629.009434 C899.663526,629.003888 900.681295,629.472994 901.370581,630.289779 C902.148783,631.117255 902.573522,632.21412 902.554915,633.348261 C902.578613,634.481527 902.157002,635.579131 901.380094,636.406744 C900.690225,637.221612 899.671913,637.687492 898.602378,637.677555 C897.526996,637.678395 896.50444,637.212814 895.800881,636.402002 C895.015245,635.589689 894.584287,634.500239 894.602277,633.37197 C894.585497,632.235484 895.015743,631.137624 895.800881,630.313488 C896.493336,629.489901 897.514932,629.012762 898.592865,629.009434 Z M926.024396,621.975598 L926.165497,621.982086 C926.536265,621.95583 926.900543,622.089241 927.16609,622.348537 C927.431637,622.607833 927.572989,622.96815 927.554355,623.338251 C927.440683,624.025262 926.8449,624.529275 926.146472,624.529275 C925.448043,624.529275 924.852261,624.025262 924.738589,623.338251 C924.718632,622.960963 924.865001,622.593811 925.139296,622.333115 C925.413592,622.072418 925.788438,621.944196 926.165497,621.982086 Z M973.992309,621.975598 L974.13341,621.982086 C974.504178,621.95583 974.868456,622.089241 975.134003,622.348537 C975.39955,622.607833 975.540902,622.96815 975.522268,623.338251 C975.408596,624.025262 974.812814,624.529275 974.114385,624.529275 C973.415956,624.529275 972.820174,624.025262 972.706502,623.338251 C972.686545,622.960963 972.832914,622.593811 973.107209,622.333115 C973.381505,622.072418 973.756351,621.944196 974.13341,621.982086 Z" id="logo_classicFolios_darkMonochrome"></path>
        </g>
    </g>
</svg>