<?xml version="1.0" encoding="UTF-8"?>
<svg width="142px" height="32px" viewBox="0 0 142 32" version="1.1" xmlns="http://www.w3.org/2000/svg" xmlns:xlink="http://www.w3.org/1999/xlink">
    <title>logo_thirdfort_darkMonochrome</title>
    <g id="Page-1" stroke="none" stroke-width="1" fill="none" fill-rule="evenodd">
        <g id="Desktop-HD-Copy" transform="translate(-694.000000, -622.000000)" fill="#171E30">
            <path d="M709.762469,622 C718.380787,622 725.383632,629.011154 725.522827,637.713586 L725.524938,638.022191 C725.524938,646.846491 718.467841,654 709.762469,654 C701.144152,654 694.141307,646.988846 694.002112,638.286414 L694,637.977809 C694,629.153509 701.057098,622 709.762469,622 Z M791.41544,628.928965 L791.41544,647.273763 L787.540447,647.273763 L787.540447,646.042041 C786.687949,647.037902 785.422118,647.640659 783.691288,647.640659 C780.307127,647.640659 777.517132,644.626871 777.517132,640.722049 C777.517132,636.817228 780.307127,633.80344 783.691288,633.80344 C785.422118,633.80344 786.687949,634.406197 787.540447,635.402058 L787.540447,628.928965 L791.41544,628.928965 Z M808.982074,633.80344 C812.779567,633.80344 815.827895,636.817228 815.827895,640.722049 C815.827895,644.626871 812.779567,647.640659 808.982074,647.640659 C805.184581,647.640659 802.136253,644.626871 802.136253,640.722049 C802.136253,636.817228 805.184581,633.80344 808.982074,633.80344 Z M741.712199,630.501376 L741.712199,634.170336 L744.373027,634.170336 L744.373027,637.944123 L741.712199,637.944123 L741.712199,642.582736 C741.712199,643.709631 742.66803,643.814458 744.373027,643.709631 L744.373027,647.273763 L743.999978,647.309191 C739.298063,647.714006 737.873651,646.19963 737.8379,642.719327 L737.837206,637.944123 L735.770543,637.944123 L735.770543,634.170336 L737.837206,634.170336 L737.837206,631.680684 L741.712199,630.501376 Z M833.339172,630.501376 L833.339172,634.170336 L836,634.170336 L836,637.944123 L833.339172,637.944123 L833.339172,642.582736 C833.339172,643.709631 834.295003,643.814458 836,643.709631 L836,647.273763 L835.62695,647.309191 C830.863972,647.719264 829.464179,646.159972 829.464179,642.582736 L829.464179,637.944123 L827.397516,637.944123 L827.397516,634.170336 L829.464179,634.170336 L829.464179,631.680684 L833.339172,630.501376 Z M750.702182,628.928965 L750.702182,635.402058 C751.399681,634.432404 752.691345,633.80344 754.396342,633.80344 C757.005504,633.80344 759.227166,635.690333 759.227166,639.228259 L759.227166,647.273763 L755.352174,647.273763 L755.352174,639.80481 C755.352174,638.179985 754.344675,637.419986 753.104678,637.419986 C751.683847,637.419986 750.702182,638.258605 750.702182,640.119292 L750.702182,647.273763 L746.827189,647.273763 L746.827189,628.928965 L750.702182,628.928965 Z M765.762988,634.170336 L765.762988,647.273763 L761.887995,647.273763 L761.887995,634.170336 L765.762988,634.170336 Z M776.354635,633.908267 L776.354635,638.363433 C774.752971,638.101364 772.479642,638.756535 772.479642,641.351014 L772.479642,647.273763 L768.604649,647.273763 L768.604649,634.170336 L772.479642,634.170336 L772.479642,636.502746 C772.996307,634.746886 774.727138,633.908267 776.354635,633.908267 Z M801.361255,628.562069 L801.361255,632.335856 C799.914591,632.204821 798.958759,632.650338 798.958759,634.170336 L801.361255,634.170336 L801.361255,637.944123 L798.958759,637.944123 L798.958759,647.273763 L795.083766,647.273763 L795.083766,637.944123 L793.352936,637.944123 L793.352936,634.170336 L795.083766,634.170336 C795.083766,630.501376 797.072929,628.3 801.361255,628.562069 Z M825.773709,633.908267 L825.773709,638.363433 C824.172046,638.101364 821.898717,638.756535 821.898717,641.351014 L821.898717,647.273763 L818.023724,647.273763 L818.023724,634.170336 L821.898717,634.170336 L821.898717,636.502746 C822.415382,634.746886 824.146212,633.908267 825.773709,633.908267 Z M705.723336,642.3 L705.132244,642.3 C703.989664,642.3 703.06342,643.240202 703.06342,644.4 C703.06342,645.524653 703.934378,646.442816 705.028989,646.49743 L705.132244,646.5 L705.723336,646.5 C706.865916,646.5 707.792161,645.559798 707.792161,644.4 C707.792161,643.240202 706.865916,642.3 705.723336,642.3 Z M784.466286,637.524813 C782.683789,637.524813 781.392125,638.756535 781.392125,640.722049 C781.392125,642.687564 782.683789,643.919286 784.466286,643.919286 C786.248783,643.919286 787.540447,642.687564 787.540447,640.722049 C787.540447,638.756535 786.248783,637.524813 784.466286,637.524813 Z M808.982074,637.629641 C807.30291,637.629641 806.011246,638.861363 806.011246,640.722049 C806.011246,642.582736 807.30291,643.814458 808.982074,643.814458 C810.661238,643.814458 811.952902,642.582736 811.952902,640.722049 C811.952902,638.861363 810.661238,637.629641 808.982074,637.629641 Z M710.452077,636.3 L705.132244,636.3 C703.989664,636.3 703.06342,637.240202 703.06342,638.4 C703.06342,639.524653 703.934378,640.442816 705.028989,640.49743 L705.132244,640.5 L710.452077,640.5 C711.594657,640.5 712.520901,639.559798 712.520901,638.4 C712.520901,637.240202 711.594657,636.3 710.452077,636.3 Z M715.180818,630.3 L705.132244,630.3 C703.989664,630.3 703.06342,631.240202 703.06342,632.4 C703.06342,633.524653 703.934378,634.442816 705.028989,634.49743 L705.132244,634.5 L715.180818,634.5 C716.323398,634.5 717.249642,633.559798 717.249642,632.4 C717.249642,631.240202 716.323398,630.3 715.180818,630.3 Z M763.825491,628.3 C765.091322,628.3 766.150487,629.374481 766.150487,630.658617 C766.150487,631.942753 765.091322,633.017234 763.825491,633.017234 C762.55966,633.017234 761.500496,631.942753 761.500496,630.658617 C761.500496,629.374481 762.55966,628.3 763.825491,628.3 Z" id="logo_thirdfort_darkMonochrome"></path>
        </g>
    </g>
</svg>