<?xml version="1.0" encoding="UTF-8"?>
<svg width="218px" height="36px" viewBox="0 0 218 36" version="1.1" xmlns="http://www.w3.org/2000/svg" xmlns:xlink="http://www.w3.org/1999/xlink">
    <title>logo_priorityPass_darkMonochrome</title>
    <g id="Page-1" stroke="none" stroke-width="1" fill="none" fill-rule="evenodd">
        <g id="Desktop-HD-Copy" transform="translate(-436.000000, -620.000000)" fill="#171E30">
            <path d="M454.037495,620 C463.999449,620 472.075149,628.058826 472.075149,638.000316 C472.075149,647.941017 463.999449,656 454.037495,656 C444.0757,656 436,647.941017 436,638.000316 C436,628.058826 444.0757,620 454.037495,620 Z M454.037495,621.262051 C444.788973,621.262051 437.264669,628.770622 437.264669,638.000316 C437.264669,647.229378 444.788973,654.737949 454.037495,654.737949 C463.286018,654.737949 470.81048,647.229378 470.81048,638.000316 C470.81048,628.770622 463.286018,621.262051 454.037495,621.262051 Z M455.152459,627.866032 C461.271934,627.866032 461.757394,631.781232 461.781233,632.779204 L461.782169,632.863753 C461.782169,634.552377 461.00661,635.96966 459.598402,636.854989 C457.939321,637.904027 455.783706,637.949638 454.641341,637.951621 L453.27,637.951569 L453.270498,645.123625 L453.276298,645.696371 C453.286133,646.263775 453.307489,646.65807 453.340205,646.873101 C453.379725,647.133872 453.478844,647.318289 453.643725,647.438184 C453.784103,647.540095 454.562033,647.756063 455.189466,647.756063 L455.189466,648.030875 L446.241999,648.030875 L446.241999,647.756805 L447.904406,647.75712 C448.492477,647.75712 448.829827,647.673036 449.042765,647.518277 C449.25602,647.363676 449.38723,647.126252 449.435445,646.807427 L449.446803,646.722734 C449.487873,646.376241 449.508164,645.728936 449.508164,644.780573 L449.511167,644.788619 L449.511167,629.582484 L446.241999,629.582484 L446.241999,629.30152 L446.505208,629.30152 C449.443349,629.30152 450.989565,628.214578 451.889693,627.8896 L451.889908,644.951048 C451.892412,645.890489 451.916819,646.511689 451.962727,646.813579 C452.011101,647.132563 452.141678,647.36967 452.355249,647.524587 C452.539087,647.658098 452.862581,647.734077 453.325323,647.752424 C453.09642,647.562827 452.954285,647.289689 452.901048,646.939989 L452.889178,646.851997 L452.875354,646.717987 C452.842955,646.354362 452.82671,645.775405 452.825693,644.962159 L452.825643,627.866032 L455.152459,627.866032 Z M526.075267,631.574964 C526.771002,631.574964 527.402961,631.663679 527.973077,631.841107 C528.544482,632.019179 529.055332,632.258964 529.504983,632.56175 C529.955278,632.865179 530.346951,633.219393 530.677425,633.627607 C531.009832,634.035179 531.284905,634.472321 531.503932,634.935179 C531.72296,635.398679 531.887875,635.87825 531.996101,636.371964 C532.10497,636.866321 532.158439,637.34975 532.158439,637.821607 C532.158439,638.293464 532.10497,638.774964 531.996101,639.266107 C531.887875,639.75725 531.726181,640.234893 531.511663,640.699036 C531.297789,641.163179 531.027225,641.598393 530.698684,642.006607 C530.370142,642.414179 529.984911,642.771607 529.54299,643.076964 C529.099781,643.382321 528.60246,643.624679 528.047804,643.801464 C527.494437,643.978893 526.881804,644.06825 526.208616,644.06825 C525.485825,644.06825 524.831962,643.98275 524.251539,643.809821 C523.669183,643.637536 523.153824,643.402893 522.70224,643.106536 C522.251945,642.808893 521.864781,642.459179 521.538817,642.056107 C521.213496,641.654321 520.946154,641.222321 520.737433,640.761393 C520.528713,640.301107 520.374105,639.818964 520.274898,639.316893 C520.174403,638.813536 520.123511,638.315321 520.123511,637.821607 C520.123511,637.343321 520.17698,636.857321 520.283273,636.363607 C520.388277,635.86925 520.549971,635.390964 520.767066,634.927464 C520.983517,634.463964 521.256013,634.029393 521.583911,633.62375 C521.913096,633.21875 522.297039,632.862607 522.735739,632.55725 C523.177015,632.251893 523.673692,632.012107 524.23028,631.83725 C524.787513,631.662393 525.402079,631.574964 526.075267,631.574964 Z M625.51809,631.5749 C625.740983,631.5749 625.977404,631.5884 626.227997,631.616043 C626.478591,631.643686 626.732405,631.691257 626.992018,631.757471 C627.250986,631.824329 627.506733,631.914971 627.763768,632.028757 C628.019515,632.142543 628.264955,632.285257 628.498155,632.458186 L628.431803,631.724043 L629.299539,631.724043 L629.299539,635.464829 L628.681752,635.464829 C628.654051,635.052114 628.574815,634.6529 628.443398,634.2659 C628.312626,633.8789 628.122587,633.5369 627.872638,633.238614 C627.622688,632.940971 627.312829,632.701829 626.944991,632.520543 C626.578442,632.3399 626.144252,632.2499 625.643709,632.2499 C625.288111,632.2499 624.973742,632.3039 624.701246,632.4119 C624.428105,632.520543 624.200059,632.666471 624.015818,632.850329 C623.832221,633.033543 623.693074,633.246971 623.599021,633.488043 C623.503679,633.729757 623.457297,633.984971 623.457297,634.251757 C623.457297,634.641329 623.550706,634.978829 623.73688,635.265543 C623.923697,635.552257 624.169781,635.806186 624.475132,636.029257 C624.781126,636.251686 625.128994,636.454829 625.51809,636.638686 L626.30888,637.006829 L626.712435,637.192186 L626.712435,637.192186 C627.118925,637.378614 627.516396,637.5779 627.905492,637.792614 C628.295232,638.006043 628.6431,638.2529 628.949094,638.533186 C629.255089,638.814114 629.501173,639.140686 629.687347,639.5129 C629.874164,639.883829 629.967573,640.3229 629.967573,640.828186 C629.967573,641.300043 629.878674,641.734614 629.700231,642.131257 C629.521787,642.529186 629.263464,642.8699 628.923971,643.155971 C628.584478,643.442043 628.165748,643.665114 627.667138,643.826471 C627.169816,643.987186 626.603565,644.067543 625.969674,644.067543 C625.713282,644.067543 625.450449,644.050186 625.18053,644.014186 C624.911254,643.977543 624.643912,643.923543 624.379146,643.851543 C624.115024,643.779543 623.858633,643.687614 623.611261,643.5764 C623.363888,643.465186 623.133909,643.3379 622.923256,643.193257 L623.006358,643.926114 L622.121872,643.926114 L622.021377,640.294614 L622.681037,640.294614 C622.714536,640.800543 622.823405,641.242829 623.006358,641.624043 C623.18931,642.003971 623.430885,642.321543 623.728505,642.5774 C624.026125,642.832614 624.372704,643.025471 624.766954,643.155971 C625.163136,643.287114 625.585731,643.3514 626.035382,643.3514 C626.370365,643.3514 626.686023,643.305114 626.983643,643.214471 C627.281263,643.123186 627.542808,642.9869 627.768277,642.805614 C627.993103,642.625614 628.171546,642.4019 628.302318,642.135757 C628.433091,641.868971 628.498155,641.564257 628.498155,641.219686 C628.498155,640.803114 628.406679,640.445043 628.223082,640.144829 C628.038841,639.844614 627.795978,639.5804 627.49256,639.350257 C627.189142,639.119471 626.844496,638.911186 626.457332,638.7254 C626.070813,638.538329 625.677207,638.353186 625.275871,638.166757 C624.875824,637.980971 624.482862,637.783614 624.095698,637.575971 C623.709179,637.367043 623.363888,637.125971 623.06047,636.851471 C622.757053,636.575686 622.513545,636.255543 622.329949,635.889114 C622.14764,635.522043 622.054232,635.086186 622.054232,634.581543 C622.054232,634.386757 622.078067,634.179114 622.121872,633.956686 C622.166322,633.7349 622.240405,633.512471 622.342833,633.290686 C622.445905,633.068257 622.582475,632.8529 622.751899,632.645257 C622.921323,632.436329 623.133909,632.253114 623.390945,632.095614 C623.646047,631.936186 623.950109,631.810829 624.29991,631.716329 C624.650998,631.621829 625.057488,631.5749 625.51809,631.5749 Z M637.344555,631.5749 C637.568092,631.5749 637.803869,631.5884 638.055106,631.616043 C638.305055,631.643686 638.559514,631.691257 638.819126,631.757471 C639.07745,631.824329 639.333841,631.914971 639.590877,632.028757 C639.845335,632.142543 640.090131,632.285257 640.32462,632.458186 L640.258267,631.724043 L641.126647,631.724043 L641.126647,635.464829 L640.508861,635.464829 C640.48116,635.052114 640.401279,634.6529 640.269863,634.2659 C640.13909,633.8789 639.949052,633.5369 639.699102,633.238614 C639.447865,632.940971 639.140582,632.701829 638.7721,632.520543 C638.405551,632.3399 637.970716,632.2499 637.470173,632.2499 C637.113931,632.2499 636.800206,632.3039 636.52771,632.4119 C636.25457,632.520543 636.027167,632.666471 635.842927,632.850329 C635.658686,633.033543 635.519539,633.246971 635.42613,633.488043 C635.330788,633.729757 635.283762,633.984971 635.283762,634.251757 C635.283762,634.641329 635.377171,634.978829 635.563344,635.265543 C635.749518,635.552257 635.995602,635.806186 636.301596,636.029257 C636.608235,636.251686 636.956103,636.454829 637.344555,636.638686 L638.135774,637.006829 L638.5389,637.192186 L638.5389,637.192186 C638.945389,637.378614 639.343504,637.5779 639.731956,637.792614 C640.121697,638.006043 640.470209,638.2529 640.775559,638.533186 C641.080909,638.814114 641.327638,639.140686 641.513811,639.5129 C641.699985,639.883829 641.794682,640.3229 641.794682,640.828186 C641.794682,641.300043 641.70385,641.734614 641.527339,642.131257 C641.347608,642.529186 641.090572,642.8699 640.751079,643.155971 C640.410942,643.442043 639.992213,643.665114 639.494247,643.826471 C638.996925,643.987186 638.430674,644.067543 637.795494,644.067543 C637.539747,644.067543 637.277558,644.050186 637.007638,644.014186 C636.736431,643.977543 636.471021,643.923543 636.205611,643.851543 C635.942133,643.779543 635.685098,643.687614 635.437725,643.5764 C635.190353,643.465186 634.961018,643.3379 634.749721,643.193257 L634.833467,643.926114 L633.948981,643.926114 L633.848486,640.294614 L634.508146,640.294614 C634.541,640.800543 634.64987,641.242829 634.833467,641.624043 C635.016419,642.003971 635.25735,642.321543 635.55497,642.5774 C635.851945,642.832614 636.199169,643.025471 636.593418,643.155971 C636.989601,643.287114 637.411551,643.3514 637.862491,643.3514 C638.19683,643.3514 638.512488,643.305114 638.810108,643.214471 C639.107728,643.123186 639.369917,642.9869 639.594742,642.805614 C639.818923,642.625614 639.998011,642.4019 640.129427,642.135757 C640.259555,641.868971 640.32462,641.564257 640.32462,641.219686 C640.32462,640.803114 640.233143,640.445043 640.050191,640.144829 C639.86595,639.844614 639.622443,639.5804 639.319669,639.350257 C639.015607,639.119471 638.670316,638.911186 638.283797,638.7254 C637.897922,638.538329 637.504316,638.353186 637.10298,638.166757 C636.702288,637.980971 636.309971,637.783614 635.921519,637.575971 C635.535644,637.367043 635.190353,637.125971 634.887579,636.851471 C634.583517,636.575686 634.34001,636.255543 634.157058,635.889114 C633.973461,635.522043 633.881984,635.086186 633.881984,634.581543 C633.881984,634.386757 633.903887,634.179114 633.948981,633.956686 C633.992143,633.7349 634.06687,633.512471 634.169297,633.290686 C634.273013,633.068257 634.408939,632.8529 634.578364,632.645257 C634.748432,632.436329 634.961018,632.253114 635.217409,632.095614 C635.472512,631.936186 635.776574,631.810829 636.127018,631.716329 C636.476818,631.621829 636.883308,631.5749 637.344555,631.5749 Z M539.924967,631.832943 C540.748898,631.8503 541.453008,631.929371 542.041161,632.0708 C542.627383,632.212229 543.109243,632.413443 543.484167,632.674443 C543.859735,632.935443 544.135453,633.252371 544.310031,633.623943 C544.486541,633.996157 544.573508,634.417871 544.573508,634.889729 C544.573508,635.223371 544.529058,635.5628 544.439515,635.909943 C544.351259,636.257729 544.186989,636.586229 543.947991,636.897371 C543.708993,637.208514 543.38174,637.485586 542.966875,637.729871 C542.552655,637.9748 542.019903,638.162514 541.368618,638.296229 C541.59151,638.457586 541.792501,638.664586 541.969655,638.913371 C542.118358,639.122836 542.278245,639.360425 542.449688,639.626511 L543.722521,641.616586 C543.867466,641.844157 544.006613,642.057586 544.140606,642.254943 C544.273955,642.452943 544.419544,642.623943 544.576729,642.768586 C544.735846,642.912586 544.914934,643.027014 545.112058,643.110586 C545.309183,643.194157 545.541739,643.2353 545.809082,643.2353 L545.809082,643.7933 L543.655524,643.7933 C543.489321,643.649943 543.338578,643.504657 543.204585,643.360014 C543.070592,643.216014 542.944973,643.066229 542.825152,642.9113 C542.705331,642.755086 542.589375,642.595014 542.479217,642.431729 L542.248975,642.087538 L542.128772,641.902657 L542.128772,641.902657 L540.984675,640.078871 C540.932709,639.997443 540.879599,639.911729 540.825343,639.821729 L540.7431,639.683514 C540.659354,639.541443 540.570455,639.399371 540.475113,639.254729 C540.38106,639.110086 540.279921,638.969943 540.174272,638.833657 C540.068624,638.698014 539.957822,638.573943 539.841866,638.462729 C539.652471,638.4743 539.4605,638.478157 539.265952,638.475586 C539.070759,638.472371 538.876211,638.462729 538.681663,638.446014 L538.681663,641.767014 C538.681663,642.026836 538.678532,642.254961 538.672269,642.452877 L538.668135,642.568014 C538.660405,642.791086 538.6443,642.973657 538.623041,643.119586 L539.858615,643.052086 L539.858615,643.7933 L536.010814,643.7933 L536.010814,643.2353 C536.332913,643.224371 536.574488,643.165871 536.736182,643.060443 C536.897876,642.954371 537.012543,642.811014 537.078896,642.626514 C537.144604,642.4433 537.180679,642.226014 537.183256,641.972729 L537.187765,641.143443 L537.187765,633.766657 C537.187765,633.532657 537.191631,633.312157 537.200005,633.103229 C537.20838,632.895586 537.223841,632.704657 537.245743,632.533014 L536.010814,632.608229 L536.010814,631.8503 C536.655657,631.838729 537.303721,631.830371 537.955651,631.824586 C538.606936,631.820086 539.262086,631.822014 539.924967,631.832943 Z M489.15422,631.824843 C490.813677,631.824843 492.074374,632.102557 492.936957,632.657986 C493.860094,633.262914 494.320696,634.148129 494.320696,635.314271 C494.320696,635.552771 494.295573,635.817629 494.242748,636.105629 C494.189924,636.394271 494.082343,636.692557 493.920649,637.001771 C493.759599,637.309057 493.537995,637.603486 493.258412,637.883771 C492.976253,638.164057 492.622588,638.408343 492.196772,638.616629 C491.771601,638.824271 491.263972,638.992057 490.67453,639.117414 C490.084443,639.240843 489.39966,639.303843 488.620823,639.303843 L488.357346,639.303843 C488.238813,639.303843 488.122857,639.301271 488.012055,639.294843 L488.012055,641.765986 C488.012055,642.015414 488.009169,642.236043 488.003727,642.42853 L487.999171,642.567629 L487.988744,642.777343 C487.98006,642.908343 487.968035,643.021914 487.953433,643.1192 L489.531076,643.034986 L489.531076,643.793557 L485.341205,643.793557 L485.341205,643.234914 C485.663305,643.223986 485.905524,643.165486 486.066574,643.0607 C486.228268,642.954629 486.342935,642.810629 486.409932,642.626771 C486.47564,642.442914 486.511071,642.225629 486.513648,641.972343 L486.518157,641.143057 L486.518157,633.766271 C486.518157,633.532271 486.522022,633.311771 486.530397,633.103486 C486.539416,632.8952 486.554232,632.704914 486.576135,632.532629 L485.341205,632.607843 L485.341205,631.849914 C485.741468,631.8422 486.149174,631.836771 486.564706,631.833057 L487.193922,631.8287 L488.653516,631.825084 C488.819196,631.824843 488.986084,631.824843 489.15422,631.824843 Z M501.742965,631.832943 C502.566252,631.8503 503.27165,631.929371 503.858515,632.0708 C504.44538,632.212229 504.927241,632.413443 505.302165,632.674443 C505.678377,632.935443 505.954095,633.252371 506.128673,633.623943 C506.305183,633.996157 506.391506,634.417871 506.391506,634.889729 C506.391506,635.223371 506.3477,635.5628 506.257512,635.909943 C506.169257,636.257729 506.004986,636.586229 505.765988,636.897371 C505.526346,637.208514 505.199737,637.485586 504.785517,637.729871 C504.370653,637.9748 503.837901,638.162514 503.186615,638.296229 C503.410152,638.457586 503.609854,638.664586 503.787653,638.913371 C503.930408,639.114457 504.083882,639.341463 504.247745,639.594718 L505.539875,641.616586 C505.684819,641.844157 505.824611,642.057586 505.95796,642.254943 C506.092597,642.452943 506.237542,642.623943 506.396015,642.768586 C506.554488,642.912586 506.732931,643.027014 506.9307,643.110586 C507.127181,643.194157 507.359737,643.2353 507.62708,643.2353 L507.62708,643.7933 L505.473522,643.7933 C505.306675,643.649943 505.15722,643.504657 505.023227,643.360014 C504.889878,643.216014 504.76297,643.066229 504.643149,642.9113 C504.523328,642.755086 504.408017,642.595014 504.297859,642.431729 C504.185124,642.268443 504.068524,642.091657 503.94677,641.902657 L502.723866,639.953514 L502.561098,639.683514 C502.477352,639.541443 502.388453,639.399371 502.293755,639.254729 C502.199702,639.110086 502.099207,638.969943 501.993559,638.833657 C501.887266,638.698014 501.776464,638.573943 501.659863,638.462729 C501.470469,638.4743 501.278498,638.478157 501.083949,638.475586 C500.889401,638.472371 500.694209,638.462729 500.499661,638.446014 L500.499661,641.767014 C500.499661,642.0788 500.495152,642.344943 500.486777,642.568014 L500.473553,642.816507 C500.465312,642.93128 500.454567,643.032029 500.441039,643.119586 L501.675968,643.052086 L501.675968,643.7933 L497.828811,643.7933 L497.828811,643.2353 C498.150911,643.224371 498.39313,643.165871 498.554824,643.060443 C498.715874,642.954371 498.830541,642.811014 498.896894,642.626514 C498.963246,642.4433 498.998677,642.226014 499.001254,641.972729 L499.006407,641.143443 L499.006407,633.766657 C499.006407,633.532657 499.009628,633.312157 499.018003,633.103229 C499.026378,632.895586 499.042483,632.704657 499.063741,632.533014 L497.828811,632.608229 L497.828811,631.8503 C498.473655,631.838729 499.122363,631.830371 499.773649,631.824586 C500.42429,631.820086 501.081373,631.822014 501.742965,631.832943 Z M577.066137,631.849914 L577.066137,632.415629 C576.670599,632.415629 576.371046,632.461914 576.164903,632.5532 C575.959403,632.645129 575.826698,632.772414 575.76872,632.936986 C575.710098,633.100914 575.718473,633.296343 575.794488,633.524557 C575.868571,633.751486 575.992257,634.001557 576.164903,634.273486 L576.76594,635.2352 L577.049549,635.686325 L577.334124,636.1307 C577.52223,636.424486 577.718711,636.7247 577.921633,637.0307 C578.1252,637.336057 578.348737,637.657486 578.594177,637.996271 L578.627676,637.996271 L580.705737,634.067655 L580.906208,633.698129 L581.191157,633.188364 C581.281319,633.030752 581.347385,632.920568 581.389357,632.857914 C581.467949,632.741557 581.54783,632.6387 581.63222,632.5487 L580.280046,632.607843 L580.280046,631.849914 L583.769673,631.849914 L583.769673,632.415629 C583.484293,632.432986 583.232411,632.487629 583.008229,632.582771 C582.786625,632.677271 582.57726,632.814843 582.383356,632.995486 C582.227203,633.14 582.075996,633.312903 581.928748,633.514523 L581.819038,633.671129 C581.638018,633.940486 580.730342,635.611271 579.09472,638.684129 L579.08095,641.486343 C579.081675,641.674861 579.083447,641.7692 579.086345,641.7692 L579.081823,642.275166 L579.075008,642.530432 C579.066655,642.770976 579.053685,642.967325 579.036098,643.1192 L580.454624,643.052343 L580.454624,643.793557 L576.44062,643.793557 L576.44062,643.234914 C576.756922,643.224629 576.996564,643.162914 577.158258,643.0517 C577.319307,642.940486 577.434619,642.792629 577.499683,642.6062 C577.567968,642.420414 577.600822,642.202486 577.600822,641.952414 L577.600822,641.143057 L577.609197,639.191986 L574.645881,634.499771 C574.351482,634.043986 574.133743,633.662129 573.99524,633.353557 C573.855449,633.044986 573.763328,632.7827 573.719523,632.566057 L572.659815,632.607843 L572.659815,631.849914 L577.066137,631.849914 Z M601.330411,631.824843 C602.989224,631.824843 604.249277,632.102557 605.112504,632.657343 C606.034997,633.262914 606.496888,634.148129 606.496888,635.314271 C606.496888,635.552771 606.470476,635.816986 606.418296,636.105629 C606.365471,636.394271 606.25789,636.692557 606.09684,637.000486 C605.935146,637.309057 605.712898,637.603486 605.432671,637.883771 C605.1518,638.164057 604.798135,638.408343 604.372963,638.616629 C603.947792,638.824271 603.439519,638.992057 602.850077,639.116129 C602.260635,639.240843 601.574563,639.303843 600.79637,639.303843 L600.533537,639.303843 C600.41436,639.303843 600.299048,639.300629 600.186958,639.294843 L600.186958,641.765986 C600.186958,642.015414 600.184072,642.236043 600.178959,642.42853 L600.174718,642.567629 C600.166988,642.790057 600.150883,642.973271 600.128336,643.1192 L601.705979,643.034986 L601.705979,643.792914 L597.516108,643.792914 L597.516108,643.234914 C597.838208,643.223986 598.080427,643.165486 598.242121,643.059414 C598.403171,642.954629 598.517838,642.809986 598.584835,642.626771 C598.651187,642.442914 598.685974,642.224343 598.688551,641.9717 L598.692577,641.5757 L598.693704,633.766271 C598.693704,633.532271 598.696925,633.311771 598.7053,633.103486 C598.714963,632.894557 598.729135,632.704914 598.751038,632.532629 L597.516108,632.607843 L597.516108,631.849271 C597.916371,631.841557 598.324364,631.836414 598.740087,631.83289 L599.369469,631.8287 L600.829244,631.825084 C600.995065,631.824843 601.162114,631.824843 601.330411,631.824843 Z M568.828957,631.850171 L568.929452,635.455957 L568.286541,635.455957 C568.27559,634.950671 568.236293,634.510314 568.169297,634.135529 C568.103588,633.760743 567.9857,633.450243 567.819497,633.202743 C567.652005,632.956529 567.427179,632.772029 567.143088,632.649886 C566.858996,632.5271 566.4976,632.466029 566.058256,632.466029 L564.614606,632.474386 L564.587467,642.115715 L564.582276,642.3919 C564.574345,642.696435 564.559835,642.939057 564.538591,643.119457 L565.958405,643.051957 L565.958405,643.793171 L561.943112,643.793171 L561.943112,643.235171 C562.260058,643.224243 562.500345,643.163171 562.661394,643.051957 C562.822444,642.940743 562.936467,642.792243 563.003464,642.606457 C563.069817,642.420029 563.103959,642.2021 563.103959,641.952671 L563.103959,641.143314 L563.128439,632.4911 L561.359468,632.499457 C560.998072,632.499457 560.692722,632.559243 560.44535,632.678814 C560.197333,632.798386 559.995699,632.979671 559.840447,633.2246 C559.68455,633.468243 559.571171,633.774886 559.502242,634.143886 C559.432024,634.513529 559.397882,634.950671 559.397882,635.455957 L558.763346,635.455957 L558.863197,631.850171 L568.828957,631.850171 Z M515.842486,631.850107 L515.842486,632.407464 C515.520387,632.419036 515.278168,632.478179 515.116474,632.586821 C514.955424,632.695464 514.840757,632.841393 514.774404,633.02525 C514.708052,633.208464 514.672621,633.42575 514.670688,633.675179 L514.66643,634.285662 L514.666179,641.767464 C514.666179,642.078607 514.661669,642.345393 514.653295,642.567821 C514.64492,642.790893 514.629459,642.973464 514.607557,643.119393 L515.842486,643.051893 L515.842486,643.793107 L511.995329,643.793107 L511.995329,643.235107 C512.317429,643.224179 512.559648,643.165679 512.721342,643.059607 C512.882391,642.954821 512.99577,642.810179 513.063411,642.626321 C513.130408,642.443107 513.165195,642.224536 513.167127,641.97125 L513.17059,641.573884 L513.171637,633.75875 C513.171637,633.525393 513.176146,633.304893 513.185165,633.095964 C513.192251,632.887036 513.207712,632.69675 513.230259,632.523821 L511.995329,632.599036 L511.995329,631.850107 L515.842486,631.850107 Z M554.024488,631.850107 L554.024488,632.407464 C553.701745,632.419036 553.46017,632.478179 553.298476,632.586821 C553.137426,632.695464 553.023403,632.841393 552.955762,633.02525 C552.890054,633.208464 552.853979,633.42575 552.852046,633.675179 L552.848342,634.071741 L552.847537,641.767464 C552.847537,642.078607 552.843671,642.345393 552.834653,642.567821 C552.826278,642.790893 552.811462,642.973464 552.788915,643.119393 L554.024488,643.051893 L554.024488,643.793107 L550.177331,643.793107 L550.177331,643.235107 C550.499431,643.224179 550.74165,643.165679 550.903988,643.059607 C551.065038,642.954821 551.179061,642.810179 551.244769,642.626321 C551.31241,642.443107 551.345909,642.224536 551.34913,641.97125 L551.353639,641.141321 L551.353639,633.75875 C551.353639,633.525393 551.358148,633.304893 551.366523,633.095964 C551.373609,632.887036 551.390358,632.69675 551.412261,632.523821 L550.177331,632.599036 L550.177331,631.850107 L554.024488,631.850107 Z M613.675327,631.524371 L617.48963,641.242443 C617.539878,641.359443 617.590765,641.500229 617.643594,641.663514 C617.696418,641.828086 617.746665,641.995871 617.794336,642.168157 C617.840719,642.3398 617.877438,642.509514 617.902562,642.6773 C617.927041,642.8438 617.937348,642.990371 617.932839,643.118943 L619.100128,643.052086 L619.100128,643.792657 L615.185974,643.792657 L615.185974,643.234657 C615.502276,643.229514 615.73612,643.171014 615.886863,643.0598 C616.036961,642.947943 616.131658,642.8123 616.17031,642.6503 C616.208962,642.489586 616.208962,642.316657 616.17031,642.1328 C616.131658,641.948943 616.082055,641.776014 616.020212,641.615943 L615.419174,640.011371 L610.970979,640.111657 L610.798415,640.6163 L610.645659,641.076586 L610.645659,641.076586 C610.550962,641.369086 610.462062,641.657086 610.378316,641.940586 L610.29667,642.189348 L610.261716,642.299943 C610.228862,642.405371 610.19472,642.503086 610.161865,642.5918 L610.060726,642.851514 L609.952501,643.118943 L611.28857,643.052086 L611.28857,643.792657 L608.090765,643.792657 L608.090765,643.234657 C608.347157,643.234657 608.555877,643.183229 608.717571,643.081014 C608.878621,642.977514 609.015191,642.832229 609.126637,642.643229 C609.238084,642.454229 609.338579,642.229229 609.431344,641.967586 L609.658907,641.333779 L613.266261,631.524371 L613.675327,631.524371 Z M526.016,632.249964 C525.315112,632.249964 524.699902,632.404893 524.172947,632.716036 C523.642771,633.027179 523.204071,633.432821 522.852983,633.932964 C522.503183,634.433107 522.240349,634.99625 522.064483,635.620464 C521.889261,636.246607 521.801006,636.875964 521.801006,637.508536 C521.801006,637.930893 521.840946,638.368679 521.918894,638.82125 C521.996198,639.273821 522.114086,639.718036 522.272559,640.151321 C522.431677,640.584607 522.631378,640.997321 522.873597,641.388179 C523.115816,641.780964 523.402485,642.121679 523.733603,642.414179 C524.065366,642.706036 524.437713,642.936821 524.851933,643.110393 C525.267441,643.282036 525.73062,643.368179 526.24147,643.368179 C526.708514,643.368179 527.137551,643.297464 527.527291,643.156036 C527.915743,643.013964 528.266832,642.819821 528.578624,642.572321 C528.889773,642.324821 529.162913,642.033607 529.396113,641.697393 C529.629957,641.361179 529.824505,641.000536 529.981046,640.613536 C530.136298,640.227821 530.254186,639.815107 530.335999,639.375393 C530.41588,638.937607 530.457109,638.526179 530.457109,638.14175 C530.457109,637.730964 530.411371,637.275821 530.323115,636.775036 C530.234216,636.275536 530.103444,635.807536 529.930154,635.370393 C529.758153,634.934536 529.546211,634.526321 529.296906,634.14575 C529.045669,633.765179 528.757067,633.434107 528.427882,633.153821 C528.099984,632.873536 527.733435,632.653036 527.330167,632.492321 C526.927542,632.330321 526.488843,632.249964 526.016,632.249964 Z M613.199264,634.0148 L613.16641,634.0148 L612.448128,635.947229 L611.846375,637.639626 L611.229947,639.3788 L615.185974,639.3788 L613.967149,636.113729 L613.199264,634.0148 Z M489.12201,632.4992 C488.815371,632.4992 488.58668,632.548057 488.433361,632.645129 C488.280042,632.7422 488.171172,632.878486 488.107396,633.055914 C488.043621,633.233986 488.012055,633.446129 488.012055,633.693629 L488.012055,638.5877 C488.223352,638.615986 488.408237,638.632057 488.566066,638.6372 L488.82447,638.644191 L489.12201,638.646843 L489.12201,638.646843 C489.606448,638.646843 490.063829,638.573557 490.494798,638.429557 C490.925767,638.285557 491.301335,638.075986 491.622147,637.802129 C491.941669,637.526986 492.194839,637.193343 492.380369,636.799914 C492.567831,636.4052 492.660595,635.959057 492.660595,635.4602 C492.660595,634.922771 492.574273,634.464414 492.401627,634.0877 C492.23027,633.710986 491.988052,633.4037 491.676259,633.168414 C491.363823,632.933771 490.991476,632.762771 490.556641,632.6567 C490.123095,632.551914 489.644455,632.4992 489.12201,632.4992 Z M601.298201,632.4992 C600.990918,632.4992 600.761583,632.547414 600.608264,632.645129 C600.454945,632.741557 600.346719,632.878486 600.282299,633.055914 C600.219168,633.233986 600.186958,633.446129 600.186958,633.692343 L600.186958,638.5877 C600.398255,638.615986 600.583784,638.632057 600.741613,638.6372 L600.999857,638.643548 L601.298201,638.645557 L601.298201,638.645557 C601.781995,638.645557 602.239376,638.573557 602.669701,638.428914 C603.101314,638.285557 603.476238,638.075986 603.79705,637.802129 C604.117216,637.526986 604.369743,637.193343 604.555916,636.799271 C604.74209,636.4052 604.836143,635.959057 604.836143,635.4602 C604.836143,634.922129 604.749176,634.464414 604.577175,634.0877 C604.405173,633.710986 604.162955,633.4037 603.851162,633.168414 C603.538726,632.933771 603.166379,632.762771 602.732188,632.6567 C602.297998,632.551914 601.819358,632.4992 601.298201,632.4992 Z M539.858615,632.482871 C539.535227,632.482871 539.293652,632.531729 539.132602,632.628157 C538.970264,632.725871 538.856241,632.8628 538.789889,633.040229 C538.722248,633.218943 538.688749,633.432371 538.685528,633.6818 L538.681814,634.291379 L538.681663,637.796729 L539.19509,637.825657 C539.31781,637.831443 539.451038,637.832889 539.594503,637.828369 L539.741371,637.8218 C540.209059,637.804443 540.634875,637.7453 541.022683,637.642443 C541.407914,637.540229 541.742897,637.380157 542.023124,637.162871 C542.305283,636.947514 542.523666,636.667871 542.679563,636.327157 C542.83417,635.985157 542.912119,635.5673 542.912119,635.072943 C542.912119,634.217943 542.666679,633.573157 542.173866,633.136657 C541.681698,632.7008 540.909304,632.482871 539.858615,632.482871 Z M501.675968,632.482871 C501.353225,632.482871 501.11165,632.531729 500.9506,632.628157 C500.788906,632.725871 500.674883,632.8628 500.607886,633.040229 C500.54089,633.218943 500.507391,633.432371 500.50417,633.6818 L500.499822,634.291379 L500.499661,637.796729 L501.013088,637.825657 C501.135808,637.831443 501.269398,637.832889 501.413045,637.828369 L501.560013,637.8218 C502.027057,637.804443 502.453517,637.7453 502.84068,637.642443 C503.2272,637.540229 503.560895,637.380157 503.841766,637.162871 C504.123281,636.947514 504.34102,636.667871 504.49756,636.327157 C504.652812,635.985157 504.730761,635.5673 504.730761,635.072943 C504.730761,634.217943 504.485321,633.573157 503.992508,633.136657 C503.50034,632.7008 502.727946,632.482871 501.675968,632.482871 Z M454.534717,628.148098 L453.27,628.1478 L453.27,637.673055 L453.845381,637.673055 L454.275908,637.668149 C456.251453,637.621874 458.671558,637.157967 458.671558,632.593989 C458.671558,628.345687 456.300861,628.155344 454.534717,628.148098 Z M650.65403,631.737093 L651.450713,633.770902 L651.543508,634.021807 L651.657692,634.34645 L651.710516,634.511664 L651.71567,634.511664 L651.778399,634.338012 L651.778399,634.338012 L651.895079,634.004852 L652.744456,631.737093 L653.922696,631.737093 L653.922696,632.072664 L653.814852,632.082807 L653.767444,632.090021 L653.767444,632.090021 C653.721706,632.098379 653.68241,632.116379 653.6502,632.144664 C653.61799,632.17295 653.594155,632.216021 653.57805,632.273879 C653.562589,632.332379 653.556147,632.412736 653.558724,632.515593 L653.636672,634.466664 L653.63796,634.535611 L653.634095,634.731521 L653.626365,634.842093 L653.616702,634.924379 L654,634.909593 L654,635.302379 L652.582762,635.302379 L652.582762,634.966807 C652.639452,634.96295 652.690343,634.957164 652.736726,634.94945 C652.783752,634.941093 652.823048,634.923093 652.855902,634.894164 C652.888112,634.866521 652.911948,634.82345 652.927409,634.76495 C652.943513,634.707093 652.949955,634.626736 652.94609,634.523879 L652.885536,633.074879 L652.8617,632.562521 L652.856547,632.562521 L651.812944,635.351879 L651.337525,635.351879 L650.605095,633.560902 L650.576082,633.486307 C650.54516,633.40595 650.513595,633.315307 650.48074,633.214379 C650.447242,633.112807 650.413744,633.003521 650.381534,632.887164 C650.349324,632.770164 650.319691,632.650593 650.293278,632.527807 L650.288769,632.527807 L650.301009,633.064593 C650.30423,633.232379 650.304874,633.393093 650.303586,633.546736 L650.294567,634.603593 L650.290057,634.731521 L650.276482,634.90076 C650.275456,634.909236 650.274382,634.917093 650.273308,634.924379 L650.659828,634.909593 L650.659828,635.302379 L649.49576,635.302379 L649.49576,634.966807 C649.552449,634.96295 649.603341,634.957164 649.649079,634.94945 C649.692885,634.941093 649.730893,634.923093 649.76117,634.894164 C649.792092,634.866521 649.815927,634.82345 649.832032,634.76495 C649.848781,634.707093 649.858444,634.626736 649.859732,634.523879 L649.891942,632.435879 L649.899834,632.24953 L649.90893,632.138426 C649.910052,632.12995 649.911268,632.122164 649.912557,632.115093 L649.525393,632.130521 L649.525393,631.737093 L650.65403,631.737093 Z M648.70449,631.737286 L648.734768,632.890571 L648.397851,632.890571 C648.397851,632.620571 648.34245,632.417429 648.232292,632.2805 C648.120846,632.143571 647.966238,632.076071 647.768469,632.078 L647.524317,632.080571 L647.524076,634.535804 L647.515782,634.789893 L647.507354,634.900952 C647.506423,634.909429 647.505421,634.917286 647.504347,634.924571 L647.91277,634.909786 L647.91277,635.302571 L646.422737,635.302571 L646.422737,634.966357 C646.478782,634.965071 646.530318,634.959929 646.575412,634.950286 C646.621795,634.941286 646.659158,634.923286 646.690724,634.894357 C646.721645,634.866071 646.744837,634.823643 646.761586,634.765143 C646.778979,634.707286 646.786065,634.626929 646.786065,634.524071 L646.786065,632.085071 L646.549644,632.085071 C646.35574,632.085071 646.201777,632.150643 646.089686,632.281786 C645.978884,632.412929 645.92155,632.615429 645.919618,632.890571 L645.582701,632.890571 L645.612979,631.737286 L648.70449,631.737286 Z" id="logo_priorityPass_darkMonochrome"></path>
        </g>
    </g>
</svg>